<svg viewBox="0 0 1000 580" xmlns="http://www.w3.org/2000/svg" font-family="Arial, Helvetica, sans-serif">
  <rect width="1000" height="580" rx="8" fill="#111217"/>

  <!-- Browser bar -->
  <rect x="0" y="0" width="1000" height="36" rx="8" fill="#1f2028"/>
  <rect x="0" y="18" width="1000" height="18" fill="#1f2028"/>
  <circle cx="20" cy="18" r="6" fill="#ff5f56"/>
  <circle cx="42" cy="18" r="6" fill="#ffbd2e"/>
  <circle cx="64" cy="18" r="6" fill="#27c93f"/>
  <rect x="350" y="8" width="300" height="20" rx="10" fill="#2a2d38" stroke="#3a3d4a"/>
  <text x="500" y="22" text-anchor="middle" font-size="11" fill="#888888">localhost:3000</text>

  <!-- Sidebar -->
  <rect x="0" y="36" width="200" height="544" fill="#161719"/>
  <text x="20" y="72" font-size="15" font-weight="bold" fill="#F97316">🛡️ MiniSIEM</text>
  <text x="20" y="92" font-size="10" fill="#666666">Grafana v10</text>

  <rect x="8" y="108" width="184" height="32" rx="4" fill="#F97316" fill-opacity="0.15"/>
  <text x="24" y="129" font-size="13" fill="#F97316">📊 Overview</text>
  <text x="24" y="162" font-size="13" fill="#888888">🔗 Network</text>
  <text x="24" y="196" font-size="13" fill="#888888">🚨 Security</text>
  <text x="24" y="230" font-size="13" fill="#888888">🔍 Explore</text>
  <line x1="8" y1="248" x2="192" y2="248" stroke="#2a2d38"/>
  <text x="24" y="272" font-size="12" fill="#666666">⚙️ Settings</text>

  <!-- Main content -->
  <text x="220" y="72" font-size="18" font-weight="bold" fill="#F1EFE8">Security Overview</text>
  <text x="220" y="90" font-size="12" fill="#666666">Last 24 hours  |  Auto-refresh: 5s</text>

  <!-- Stat cards -->
  <rect x="220" y="104" width="170" height="70" rx="6" fill="#1f2028" stroke="#2a2d38"/>
  <text x="235" y="128" font-size="12" fill="#888888">Total connections</text>
  <text x="235" y="160" font-size="24" font-weight="bold" fill="#F1EFE8">12,847</text>

  <rect x="406" y="104" width="170" height="70" rx="6" fill="#1f2028" stroke="#2a2d38"/>
  <text x="421" y="128" font-size="12" fill="#888888">Security alerts</text>
  <text x="421" y="160" font-size="24" font-weight="bold" fill="#F97316">7</text>

  <rect x="592" y="104" width="170" height="70" rx="6" fill="#1f2028" stroke="#2a2d38"/>
  <text x="607" y="128" font-size="12" fill="#888888">DNS queries</text>
  <text x="607" y="160" font-size="24" font-weight="bold" fill="#3B82F6">2,341</text>

  <rect x="778" y="104" width="200" height="70" rx="6" fill="#1f2028" stroke="#2a2d38"/>
  <text x="793" y="128" font-size="12" fill="#888888">Data transferred</text>
  <text x="793" y="160" font-size="24" font-weight="bold" fill="#10B981">1.2 GB</text>

  <!-- Traffic chart -->
  <rect x="220" y="188" width="480" height="180" rx="6" fill="#1f2028" stroke="#2a2d38"/>
  <text x="236" y="210" font-size="13" font-weight="bold" fill="#F1EFE8">Network Traffic</text>
  <!-- Chart lines -->
  <polyline points="236,340 280,310 324,295 368,320 412,280 456,300 524,260 568,290 612,270 660,285 680,340" fill="none" stroke="#3B82F6" stroke-width="2"/>
  <polyline points="236,350 280,340 324,355 368,345 412,350 456,338 524,342 568,335 612,348 660,340 680,350" fill="none" stroke="#F97316" stroke-width="1.5" stroke-dasharray="4,3"/>
  <text x="236" y="368" font-size="10" fill="#666666">00:00</text>
  <text x="380" y="368" font-size="10" fill="#666666">12:00</text>
  <text x="660" y="368" font-size="10" fill="#666666">24:00</text>
  <text x="236" y="260" font-size="10" fill="#666666">↑ Connections</text>

  <!-- Top IPs panel -->
  <rect x="716" y="188" width="262" height="180" rx="6" fill="#1f2028" stroke="#2a2d38"/>
  <text x="732" y="210" font-size="13" font-weight="bold" fill="#F1EFE8">Top Source IPs</text>
  <g font-size="11" fill="#D3D1C7">
    <text x="732" y="235">192.168.1.100</text><text x="920" y="235" text-anchor="end" fill="#3B82F6">4,231</text>
    <line x1="732" y1="248" x2="970" y2="248" stroke="#2a2d38"/>
    <text x="732" y="268">10.0.0.55</text><text x="920" y="268" text-anchor="end" fill="#3B82F6">2,108</text>
    <line x1="732" y1="280" x2="970" y2="280" stroke="#2a2d38"/>
    <text x="732" y="300">45.33.12.8</text><text x="920" y="300" text-anchor="end" fill="#F97316">891</text>
    <line x1="732" y1="312" x2="970" y2="312" stroke="#2a2d38"/>
    <text x="732" y="332">8.8.8.8</text><text x="920" y="332" text-anchor="end" fill="#3B82F6">445</text>
    <line x1="732" y1="344" x2="970" y2="344" stroke="#2a2d38"/>
    <text x="732" y="364">1.1.1.1</text><text x="920" y="364" text-anchor="end" fill="#3B82F6">312</text>
  </g>

  <!-- Alerts table -->
  <rect x="220" y="382" width="758" height="180" rx="6" fill="#1f2028" stroke="#2a2d38"/>
  <text x="236" y="404" font-size="13" font-weight="bold" fill="#F1EFE8">🚨 Recent Security Alerts (notice.log)</text>
  <rect x="220" y="410" width="758" height="24" fill="#16181f"/>
  <g font-size="11" font-weight="bold" fill="#666666">
    <text x="236" y="427">Timestamp</text>
    <text x="380" y="427">Type</text>
    <text x="520" y="427">Source IP</text>
    <text x="660" y="427">Description</text>
  </g>

  <!-- Alert rows -->
  <rect x="220" y="434" width="758" height="24" fill="#1f2028"/>
  <text x="236" y="450" font-size="11" fill="#888888">2026-07-20 14:32:01</text>
  <rect x="376" y="437" width="80" height="16" rx="8" fill="#F97316" fill-opacity="0.2"/>
  <text x="416" y="449" text-anchor="middle" font-size="10" fill="#F97316">Scan::Port_Scan</text>
  <text x="520" y="450" font-size="11" fill="#D3D1C7">10.6.13.133</text>
  <text x="660" y="450" font-size="11" fill="#888888">Address scan of 187 hosts</text>

  <rect x="220" y="458" width="758" height="24" fill="#16181f"/>
  <text x="236" y="474" font-size="11" fill="#888888">2026-07-20 14:31:55</text>
  <rect x="376" y="461" width="100" height="16" rx="8" fill="#EF4444" fill-opacity="0.2"/>
  <text x="426" y="473" text-anchor="middle" font-size="10" fill="#EF4444">DNS::Tunneling</text>
  <text x="520" y="474" font-size="11" fill="#D3D1C7">10.6.13.133</text>
  <text x="660" y="474" font-size="11" fill="#888888">201 DNS queries — possible tunneling</text>

  <rect x="220" y="482" width="758" height="24" fill="#1f2028"/>
  <text x="236" y="498" font-size="11" fill="#888888">2026-07-20 14:30:12</text>
  <rect x="376" y="485" width="110" height="16" rx="8" fill="#F59E0B" fill-opacity="0.2"/>
  <text x="431" y="497" text-anchor="middle" font-size="10" fill="#F59E0B">Weird::Bad_TCP_Flags</text>
  <text x="520" y="498" font-size="11" fill="#D3D1C7">192.168.1.50</text>
  <text x="660" y="498" font-size="11" fill="#888888">SYN scan detected on port 445</text>

  <rect x="220" y="506" width="758" height="24" fill="#16181f"/>
  <text x="236" y="522" font-size="11" fill="#888888">2026-07-20 14:28:44</text>
  <rect x="376" y="509" width="90" height="16" rx="8" fill="#10B981" fill-opacity="0.2"/>
  <text x="421" y="521" text-anchor="middle" font-size="10" fill="#10B981">SSL::Invalid_Cert</text>
  <text x="520" y="522" font-size="11" fill="#D3D1C7">104.21.96.1</text>
  <text x="660" y="522" font-size="11" fill="#888888">Self-signed certificate detected</text>

  <rect x="220" y="530" width="758" height="24" fill="#1f2028"/>
  <text x="236" y="546" font-size="11" fill="#888888">2026-07-20 14:25:10</text>
  <rect x="376" y="533" width="80" height="16" rx="8" fill="#F97316" fill-opacity="0.2"/>
  <text x="416" y="545" text-anchor="middle" font-size="10" fill="#F97316">FTP::Brute_Force</text>
  <text x="520" y="546" font-size="11" fill="#D3D1C7">192.168.1.100</text>
  <text x="660" y="546" font-size="11" fill="#888888">Multiple failed FTP login attempts</text>
</svg>
